<?xml version="1.0" encoding="UTF-8"?>
<svg width="128px" height="128px" viewBox="0 0 128 128" version="1.1" xmlns="http://www.w3.org/2000/svg" xmlns:xlink="http://www.w3.org/1999/xlink">
    <!-- Generator: Sketch 41.2 (35397) - http://www.bohemiancoding.com/sketch -->
    <title>NG-42-logo</title>
    <desc>Created with Sketch.</desc>
    <defs></defs>
    <g id="Page-1" stroke="none" stroke-width="1" fill="none" fill-rule="evenodd">
        <g id="on-white" transform="translate(0.000000, 29.000000)" fill="#0288D1">
            <g id="text">
                <path d="M29.2287582,64.3600563 L29.2287582,53.5302391 L33.5424837,53.5302391 L33.5424837,54.6905767 L30.7973856,54.6905767 L30.7973856,58.1715893 L32.7581699,58.1715893 L32.7581699,59.3319269 L30.7973856,59.3319269 L30.7973856,64.3600563 L29.2287582,64.3600563 Z M38.9726303,64.4688379 C38.421157,64.4688379 37.9483267,64.3862453 37.5541254,64.2210575 C37.1599241,64.0558697 36.846406,63.8141351 36.6135617,63.4958465 C36.3807174,63.1775579 36.2111929,62.8038765 36.1049833,62.3747912 C35.9987736,61.9457059 35.9456695,61.4471284 35.9456695,60.8790436 L35.9456695,56.9508175 C35.9456695,56.3827327 35.9987736,55.8871769 36.1049833,55.464135 C36.2111929,55.0410932 36.3807174,54.6734552 36.6135617,54.36121 C36.846406,54.0489648 37.1599241,53.8142808 37.5541254,53.657151 C37.9483267,53.5000212 38.421157,53.4214575 38.9726303,53.4214575 C40.0428971,53.4214575 40.8149482,53.7236257 41.2888068,54.3279712 C41.7626654,54.9323167 41.9995911,55.80659 41.9995911,56.9508175 L41.9995911,60.8790436 C41.9995911,61.4390704 41.9454658,61.9336191 41.8372137,62.3627044 C41.7289615,62.7917897 41.5584158,63.1664783 41.3255715,63.4867814 C41.0927272,63.8070845 40.7792091,64.0508335 40.3850078,64.2180358 C39.9908065,64.385238 39.5200187,64.4688379 38.9726303,64.4688379 Z M38.9726303,63.1997187 C39.5241037,63.1997187 39.9050231,63.0365479 40.1153999,62.7102013 C40.3257768,62.3838547 40.4309637,61.9024 40.4309637,61.2658228 L40.4309637,56.5640383 C40.4309637,55.935519 40.326798,55.466151 40.1184637,55.1559204 C39.9101293,54.8456897 39.5281887,54.6905767 38.9726303,54.6905767 C38.417072,54.6905767 38.0351314,54.8456897 37.826797,55.1559204 C37.6184626,55.466151 37.514297,55.935519 37.514297,56.5640383 L37.514297,61.2658228 C37.514297,61.9024 37.6194838,62.3838547 37.8298607,62.7102013 C38.0402376,63.0365479 38.421157,63.1997187 38.9726303,63.1997187 Z M46.8231201,58.1715893 L47.215277,58.1715893 C47.868875,58.1715893 48.3590662,58.0356136 48.6858652,57.7636581 C49.0126642,57.4917027 49.1760613,57.0475154 49.1760613,56.431083 C49.1760613,55.8146506 49.0126642,55.3704633 48.6858652,55.0985078 C48.3590662,54.8265523 47.868875,54.6905767 47.215277,54.6905767 L46.8231201,54.6905767 L46.8231201,58.1715893 Z M45.2544927,64.3600563 L45.2544927,53.5302391 L47.215277,53.5302391 C48.3835835,53.5302391 49.2638851,53.7538436 49.8562084,54.2010592 C50.4485316,54.6482749 50.7446887,55.3916087 50.7446887,56.431083 C50.7446887,57.0757182 50.6282683,57.6155921 50.395424,58.0507208 C50.1625797,58.4858496 49.8214884,58.7839889 49.3721397,58.9451477 L51.1368456,64.3600563 L49.5804731,64.3600563 L47.9995907,59.3319269 L46.8231201,59.3319269 L46.8231201,64.3600563 L45.2544927,64.3600563 Z M55.096404,64.3600563 L55.096404,54.9081399 L53.1356197,54.9081399 L53.1356197,53.5302391 L58.6258158,53.5302391 L58.6258158,54.9081399 L56.6650315,54.9081399 L56.6650315,64.3600563 L55.096404,64.3600563 Z M62.8365997,64.3600563 L62.8365997,60.8790436 L60.4836585,53.5302391 L62.052286,53.5302391 L63.6209134,58.9451477 L65.1895409,53.5302391 L66.7581683,53.5302391 L64.4052272,60.8790436 L64.4052272,64.3600563 L62.8365997,64.3600563 Z M75.0081675,64.3600563 L75.0081675,54.9081399 L73.0473832,54.9081399 L73.0473832,53.5302391 L78.5375793,53.5302391 L78.5375793,54.9081399 L76.576795,54.9081399 L76.576795,64.3600563 L75.0081675,64.3600563 Z M82.4419907,64.3600563 L80.4812064,53.5302391 L82.0498338,53.5302391 L82.8341475,58.5583685 L83.2324318,61.652602 L83.6184613,58.5583685 L84.402775,53.5302391 L85.9714024,53.5302391 L86.7557162,58.5583685 L87.1417456,61.652602 L87.5400299,58.5583685 L88.3243436,53.5302391 L89.8929711,53.5302391 L87.9321868,64.3600563 L86.3635593,64.3600563 L85.5792456,59.3319269 L85.1870887,56.2376934 L84.7949318,59.3319269 L84.0106181,64.3600563 L82.4419907,64.3600563 Z M95.4579216,64.4688379 C94.9064483,64.4688379 94.4336181,64.3862453 94.0394167,64.2210575 C93.6452154,64.0558697 93.3316973,63.8141351 93.098853,63.4958465 C92.8660087,63.1775579 92.6964843,62.8038765 92.5902746,62.3747912 C92.4840649,61.9457059 92.4309609,61.4471284 92.4309609,60.8790436 L92.4309609,56.9508175 C92.4309609,56.3827327 92.4840649,55.8871769 92.5902746,55.464135 C92.6964843,55.0410932 92.8660087,54.6734552 93.098853,54.36121 C93.3316973,54.0489648 93.6452154,53.8142808 94.0394167,53.657151 C94.4336181,53.5000212 94.9064483,53.4214575 95.4579216,53.4214575 C96.5281884,53.4214575 97.3002395,53.7236257 97.7740981,54.3279712 C98.2479567,54.9323167 98.4848824,55.80659 98.4848824,56.9508175 L98.4848824,60.8790436 C98.4848824,61.4390704 98.4307572,61.9336191 98.322505,62.3627044 C98.2142528,62.7917897 98.0437071,63.1664783 97.8108628,63.4867814 C97.5780185,63.8070845 97.2645004,64.0508335 96.8702991,64.2180358 C96.4760978,64.385238 96.00531,64.4688379 95.4579216,64.4688379 Z M95.4579216,63.1997187 C96.009395,63.1997187 96.3903144,63.0365479 96.6006913,62.7102013 C96.8110681,62.3838547 96.916255,61.9024 96.916255,61.2658228 L96.916255,56.5640383 C96.916255,55.935519 96.8120894,55.466151 96.603755,55.1559204 C96.3954206,54.8456897 96.01348,54.6905767 95.4579216,54.6905767 C94.9023633,54.6905767 94.5204227,54.8456897 94.3120883,55.1559204 C94.1037539,55.466151 93.9995883,55.935519 93.9995883,56.5640383 L93.9995883,61.2658228 C93.9995883,61.9024 94.1047752,62.3838547 94.315152,62.7102013 C94.5255289,63.0365479 94.9064483,63.1997187 95.4579216,63.1997187 Z" id="forty-two"></path>
                <g id="main">
                    <path d="M10.6884183,4.13884669 L4.60465359,4.13884669 L4.60465359,53.4485513 L10.6884183,53.4485513 L10.6884183,56.953699 L0.448418301,56.953699 L0.448418301,0.633699015 L10.6884183,0.633699015 L10.6884183,4.13884669 Z M31.8310065,9.84213783 L36.8305359,9.84213783 L36.8305359,47.0323488 L31.3491242,47.0323488 L23.3980654,20.179353 L23.3980654,47.0323488 L18.3985359,47.0323488 L18.3985359,9.84213783 L24.1208889,9.84213783 L31.8310065,35.9228129 L31.8310065,9.84213783 Z M60.4427712,20.7140366 L54.9613595,20.7140366 L54.9613595,15.7830661 C54.9613595,15.0701511 54.8408901,14.6047831 54.5999477,14.386948 C54.3590053,14.1691128 53.8771278,14.0601969 53.1543007,14.0601969 L50.0823007,14.0601969 C49.3594735,14.0601969 48.877596,14.1691128 48.6366536,14.386948 C48.3957112,14.6047831 48.2752418,15.0701511 48.2752418,15.7830661 L48.2752418,41.1508298 C48.2752418,41.8637448 48.3957112,42.3291128 48.6366536,42.546948 C48.877596,42.7647831 49.3594735,42.873699 50.0823007,42.873699 L53.1543007,42.873699 C53.8771278,42.873699 54.3590053,42.7647831 54.5999477,42.546948 C54.8408901,42.3291128 54.9613595,41.8637448 54.9613595,41.1508298 L54.9613595,32.0612096 L51.9495948,32.0612096 L51.9495948,27.9025598 L60.4427712,27.9025598 L60.4427712,41.8043319 C60.4427712,45.3293003 58.5754958,47.0917581 54.8408889,47.0917581 L48.3957124,47.0917581 C44.6611055,47.0917581 42.7938301,45.3293003 42.7938301,41.8043319 L42.7938301,15.0701547 C42.7938301,11.5847927 44.6611055,9.84213783 48.3957124,9.84213783 L54.8408889,9.84213783 C58.5754958,9.84213783 60.4427712,11.5847927 60.4427712,15.0701547 L60.4427712,20.7140366 Z M64.900183,47.0323488 L64.900183,39.725007 L70.9839477,39.725007 L70.9839477,47.0323488 L64.900183,47.0323488 Z M94.7768889,35.2693108 L94.7768889,39.6655977 L91.4037124,39.6655977 L91.4037124,47.0323488 L86.1632418,47.0323488 L86.1632418,39.6655977 L73.2728889,39.6655977 L73.2728889,35.2099015 L84.1152418,9.84213783 L89.5364183,9.84213783 L78.4531242,35.2693108 L86.1632418,35.2693108 L86.1632418,28.1401969 L91.4037124,28.1401969 L91.4037124,35.2693108 L94.7768889,35.2693108 Z M101.703948,15.9018847 L101.703948,21.9616315 L96.2827712,21.9616315 L96.2827712,15.0701547 C96.2827712,11.5847927 98.1500467,9.84213783 101.884654,9.84213783 L107.064889,9.84213783 C110.839653,9.84213783 112.727007,11.5847927 112.727007,15.0701547 L112.727007,18.8129395 C112.727007,21.5853866 112.024268,24.2983834 110.618771,26.9520113 L102.487007,42.6954712 L112.967948,42.6954712 L112.967948,47.0323488 L96.3430065,47.0323488 L96.3430065,42.873699 L105.559007,25.7638256 C106.683404,23.6646871 107.245595,21.2883396 107.245595,18.6347117 L107.245595,15.9018847 C107.245595,15.1889697 107.135165,14.7236017 106.914301,14.5057665 C106.693437,14.2879314 106.20152,14.1790155 105.438536,14.1790155 L103.511007,14.1790155 C102.788179,14.1790155 102.306302,14.2879314 102.065359,14.5057665 C101.824417,14.7236017 101.703948,15.1889697 101.703948,15.9018847 Z M127.966536,0.633699015 L127.966536,56.953699 L117.726536,56.953699 L117.726536,53.4485513 L123.810301,53.4485513 L123.810301,4.13884669 L117.726536,4.13884669 L117.726536,0.633699015 L127.966536,0.633699015 Z" id="[NG.42]" opacity="0.599999964"></path>
                    <polygon id="." points="64.8734118 47.0323488 64.8734118 39.725007 70.9571765 39.725007 70.9571765 47.0323488"></polygon>
                </g>
            </g>
        </g>
    </g>
</svg>